Coordinates
version=1
nRows=18
nColumns=34
inDegrees=no

Units are S.I. units (second, meters, Newtons, ...)
If the header above contains a line with 'inDegrees', this indicates whether rotational values are in degrees (yes) or radians (no).

endheader
time	pelvis_tilt	pelvis_list	pelvis_rotation	pelvis_tx	pelvis_ty	pelvis_tz	hip_flexion_r	hip_adduction_r	hip_rotation_r	knee_angle_r	ankle_angle_r	subtalar_angle_r	mtp_angle_r	hip_flexion_l	hip_adduction_l	hip_rotation_l	knee_angle_l	ankle_angle_l	subtalar_angle_l	mtp_angle_l	lumbar_extension	lumbar_bending	lumbar_rotation	arm_flex_r	arm_add_r	arm_rot_r	elbow_flex_r	pro_sup_r	arm_flex_l	arm_add_l	arm_rot_l	elbow_flex_l	pro_sup_l
1.5	-0.0213256	-0.0882159	0.102326	-0.37558	1.11011	-0.577342	0.457583	-0.0544681	-0.27246	0.431833	-0.598684	-0.0749695	-0.115704	0.497717	-0.184522	-0.0909545	0.455823	-0.516503	0.0516662	-0.115704	-0.105339	0.073548	-0.0772749	-1.41378	-0.774934	-2.49617	1.99269	1.73398	-1.35922	-0.501973	-1.96277	1.96862	1.3673
1.51	-0.0204504	-0.0892959	0.0938182	-0.367089	1.0782	-0.575631	0.49338	-0.0472877	-0.233875	0.542972	-0.398649	-0.101104	-0.115704	0.540747	-0.190164	-0.066783	0.58197	-0.323738	0.025378	-0.115704	-0.110166	0.070944	-0.0800556	-1.30345	-0.74803	-2.36416	2.05295	1.72668	-1.32947	-0.454972	-1.83378	1.93251	1.39698
1.52	-0.0215706	-0.0911689	0.0857032	-0.359715	1.04819	-0.573904	0.53034	-0.0382592	-0.199859	0.646209	-0.220144	-0.128176	-0.115704	0.584017	-0.195138	-0.0444449	0.698115	-0.153115	0.00114207	-0.115704	-0.114208	0.0691999	-0.0822432	-1.19347	-0.717017	-2.22979	2.09964	1.72072	-1.28917	-0.412382	-1.70765	1.88906	1.42031
1.53	-0.0246209	-0.0938105	0.078011	-0.353457	1.02013	-0.572172	0.568442	-0.0274575	-0.170335	0.741544	-0.0638014	-0.156174	-0.115704	0.627438	-0.199371	-0.0238003	0.804202	-0.00489896	-0.0211961	-0.115704	-0.117573	0.0683203	-0.0837571	-1.08396	-0.68188	-2.0933	2.13271	1.71636	-1.23826	-0.374197	-1.58427	1.83842	1.43729
1.54	-0.0293553	-0.09714	0.0708255	-0.348309	0.994103	-0.570465	0.607555	-0.0151123	-0.145064	0.829078	0.0691355	-0.185	-0.115704	0.670702	-0.202668	-0.00449543	0.900176	0.120548	-0.041994	-0.115704	-0.120642	0.0683111	-0.0843531	-0.975407	-0.642665	-1.95548	2.15208	1.71434	-1.17661	-0.340405	-1.46343	1.78103	1.44803
1.55	-0.0352757	-0.100995	0.0642851	-0.344246	0.970256	-0.568838	0.647313	-0.00164638	-0.123604	0.909102	0.177537	-0.214349	-0.115704	0.713191	-0.204726	0.0139806	0.986092	0.22323	-0.0616985	-0.115704	-0.124138	0.0691552	-0.08361	-0.868748	-0.599661	-1.81776	2.15783	1.71594	-1.10422	-0.310977	-1.34482	1.71786	1.45292
1.56	-0.0417066	-0.105136	0.0585589	-0.34122	0.948736	-0.567359	0.687066	0.012357	-0.105364	0.982004	0.26124	-0.243644	-0.115704	0.754064	-0.205208	0.0321347	1.06218	0.303915	-0.0806758	-0.115704	-0.129009	0.0707838	-0.0810094	-0.765349	-0.553626	-1.68209	2.15046	1.72268	-1.02141	-0.285847	-1.22806	1.65049	1.4527
1.57	-0.0480101	-0.109298	0.0537931	-0.339157	0.929644	-0.566097	0.725952	0.0262522	-0.089745	1.04805	0.321594	-0.272095	-0.115704	0.792485	-0.203888	0.0502775	1.12884	0.364306	-0.0990862	-0.115704	-0.136121	0.0730724	-0.0760851	-0.666714	-0.505938	-1.55047	2.13113	1.73596	-0.92909	-0.264876	-1.11279	1.58116	1.4487
1.58	-0.0538155	-0.113252	0.0500475	-0.337954	0.913001	-0.565096	0.763074	0.039443	-0.0762912	1.10722	0.361516	-0.298829	-0.115704	0.827876	-0.200774	0.0683821	1.18657	0.407003	-0.116838	-0.115704	-0.14594	0.0758485	-0.0685964	-0.574097	-0.458591	-1.42445	2.1018	1.75654	-0.828825	-0.247844	-0.998733	1.51263	1.44274
1.59	-0.0591305	-0.116826	0.0472614	-0.337496	0.898724	-0.564365	0.797707	0.0514414	-0.06474	1.15924	0.385093	-0.323036	-0.115704	0.860031	-0.19615	0.0860447	1.23588	0.435274	-0.133612	-0.115704	-0.158373	0.0788719	-0.0586872	-0.488112	-0.414003	-1.30461	2.06506	1.78424	-0.722819	-0.234466	-0.885802	1.44795	1.43694
1.6	-0.0643099	-0.119857	0.0452718	-0.337659	0.886635	-0.563874	0.829492	0.0618588	-0.0549487	1.20386	0.396867	-0.344079	-0.115704	0.889122	-0.190496	0.102564	1.27733	0.452661	-0.148931	-0.115704	-0.172815	0.0817834	-0.0469937	-0.408491	-0.374681	-1.1904	2.02397	1.81775	-0.613708	-0.224452	-0.774259	1.39018	1.43346
1.61	-0.0699401	-0.122158	0.0438657	-0.338326	0.876486	-0.563554	0.858544	0.0703779	-0.0467871	1.24112	0.401106	-0.361565	-0.115704	0.915632	-0.184341	0.117118	1.31146	0.46253	-0.162262	-0.115704	-0.188295	0.0840965	-0.0346296	-0.334087	-0.342821	-1.08024	1.9817	1.8548	-0.504255	-0.217551	-0.664803	1.34207	1.43423
1.62	-0.076707	-0.123552	0.0428199	-0.339391	0.867985	-0.563326	0.885434	0.0767679	-0.0400972	1.27147	0.401274	-0.375334	-0.115704	0.940288	-0.178173	0.128984	1.33894	0.467686	-0.173129	-0.115704	-0.203651	0.0853148	-0.0229468	-0.263174	-0.319951	-0.971971	1.94125	1.89295	-0.396942	-0.213605	-0.558481	1.3058	1.44076
1.63	-0.0852583	-0.123943	0.0419244	-0.340765	0.860839	-0.563115	0.911	0.0809245	-0.0347156	1.29565	0.399817	-0.385419	-0.115704	0.963942	-0.172407	0.137709	1.3605	0.470171	-0.1812	-0.115704	-0.217691	0.0850992	-0.0131849	-0.193898	-0.306713	-0.863522	1.90521	1.92991	-0.293624	-0.212561	-0.456465	1.28266	1.45403
1.64	-0.0960734	-0.123361	0.0410067	-0.342367	0.85479	-0.56287	0.936097	0.0828859	-0.0305099	1.31454	0.398199	-0.391998	-0.115704	0.987398	-0.167377	0.143166	1.37696	0.471266	-0.186341	-0.115704	-0.229369	0.0833774	-0.00614734	-0.124705	-0.302796	-0.753543	1.87566	1.96416	-0.195311	-0.214452	-0.359784	1.27293	1.47466
1.65	-0.109354	-0.121934	0.0399687	-0.344135	0.849634	-0.562567	0.961337	0.0827958	-0.0273848	1.32901	0.397102	-0.39536	-0.115704	1.01122	-0.163306	0.145505	1.38906	0.471644	-0.188607	-0.115704	-0.237971	0.0803113	-0.00213104	-0.054551	-0.307045	-0.641729	1.854	1.99492	-0.102227	-0.219329	-0.269241	1.27596	1.50285
1.66	-0.124971	-0.119825	0.0388079	-0.346015	0.845236	-0.562204	0.986948	0.0808476	-0.0252576	1.33975	0.396688	-0.395878	-0.115704	1.03559	-0.160284	0.145054	1.39746	0.471568	-0.188212	-0.115704	-0.243232	0.0761897	-0.00100138	0.0170702	-0.31769	-0.528898	1.84093	2.02177	-0.0140256	-0.227171	-0.185431	1.29041	1.53812
1.67	-0.1425	-0.117173	0.0375947	-0.347969	0.841521	-0.561801	1.01276	0.0772546	-0.0240238	1.34732	0.396821	-0.393968	-0.115704	1.06031	-0.158272	0.142209	1.40269	0.471076	-0.185485	-0.115704	-0.245361	0.0713196	-0.00231212	0.0901844	-0.332652	-0.416856	1.83642	2.0445	0.0699421	-0.237819	-0.108821	1.31454	1.57934
